<?xml version="1.0" encoding="utf-8"?>
<!-- Generator: Adobe Illustrator 21.1.0, SVG Export Plug-In . SVG Version: 6.00 Build 0)  -->
<svg version="1.1" id="Layer_1" xmlns="http://www.w3.org/2000/svg" xmlns:xlink="http://www.w3.org/1999/xlink" x="0px" y="0px"
	 viewBox="0 0 371.5 395.9" style="enable-background:new 0 0 371.5 395.9;" xml:space="preserve">
<style type="text/css">
	.st0{fill:#6CB244;}
	.st1{fill:#353535;}
	.st2{fill:#AFAFAF;}
	.st3{fill:#FDFDFD;}
	.st4{fill:#EDECEB;}
	.st5{fill:none;}
	.st6{font-family:'Somatic-Rounded';}
	.st7{font-size:49px;}
	.st8{font-family:'Montserrat-Bold';}
	.st9{font-size:7px;}
	.st10{letter-spacing:2;}
</style>
<g>
	<path class="st0" d="M224.9,130.1c-2.2-6.3-7.2-10.5-11.3-15.4c-3.2-3.8-6.4-8-10-10.8c-9.5-7.3-17.5-17.7-30.9-18.6
		c-1-0.1-2-0.1-2.5-1.2c-1-1.5,0.2-2.1,1.2-2.7c10.7-6.3,21.9-10.5,34.6-7.3c3,0.7,5.6-1.2,8.6-0.2c8.5,2.7,15.7,8.1,17.6,16.2
		c2.5,10.6,6.1,21.5,2.6,32.8c-1.5,4.8-3.3,9.3-6.5,13.2c-1.5-0.5-0.6-2.9-2.6-3c0,0,0,0.1,0,0.1
		C227.3,131.5,225.9,130.8,224.9,130.1L224.9,130.1z"/>
	<path class="st1" d="M179.9,233.2c-4.6,0.2-9.2,1.3-13.9,0.2c-4.1-1.4-8.1-3.1-11.8-5.4c-11.2-9.8-13.4-23.1-14.2-36.9
		c-0.1-1.5-0.2-3.1,1.3-4c1.8-1,3.1,0.1,4.5,1.2c6.1,4.8,12.5,8.9,20.5,9.2c4.8,0.2,9.6-0.6,14.4-0.3c12.3,0.6,19.2,8.7,17.2,19.8
		c-0.7,4.1-3.3,7.1-6.1,10C188.3,229.9,183.8,231,179.9,233.2z M160.4,201.5c6.5,3,13,5.4,20.1,4.9c1.5-0.1,3.7,0,3.8-2.3
		c0.1-1.8-1.6-2.8-3.1-3.5c-0.9-0.4-1.9-0.7-2.9-0.6C172.4,200.9,166.4,201,160.4,201.5z"/>
	<path class="st1" d="M167.6,186.1c-9.8,0.1-18.1-2.2-24.5-9.1c-7.7-8.2-6.9-24.8,1.3-32.3c2.1-2,4-2,5.3,0.4
		c5.1,9.2,13.2,12.6,23.2,12.7c2.7,0,5.2,0.9,7.7,1.9c8.7,3.8,10.6,14.3,3.6,20.8C179.3,185.1,173.4,186.5,167.6,186.1z
		 M183.9,174.6c3.2-4.8,2.5-7.6-2.1-8.2C183.8,168.7,183.9,171.4,183.9,174.6z"/>
	<path class="st1" d="M199.8,171.2c1.4-0.7,2.7-1.5,4-2.2c0.5-0.3,1.1-0.6,1.6-1c6.5-4.8,10.6-10.9,9.9-19.4
		c-0.4-3.9,2.5-2.5,3.9-2.3c12.6,1.3,18.9,15.1,12.1,26.9c-4.6,7.9-12.3,11.7-20.4,15c-0.6-0.1-1.1,0.1-1.1,0.8l0.1,0
		c-4,0.4-8,0.7-12,1.1c-3.6-1.3-6-3.6-5.9-7.6c0-5.2,3.2-8.4,7.5-10.7C199.7,171.7,199.8,171.5,199.8,171.2z"/>
	<path class="st1" d="M214,195.1c6.5-0.1,12.6,3.3,14.6,8.2c2.2,5.3,0.3,12.2-4.7,17.1c-3.6,3.5-8.2,5.3-12.5,7.7
		c-3.7-0.2-7.4,3.1-11.1-0.1c1.9-5.1,4.4-9.9,4.9-15.5c0.5-5.7-0.9-10.4-5.5-14.1c-1-0.8-2.9-1.1-2.6-2.6c0.4-1.7,2.4-1.4,3.8-1.5
		c1-0.1,2,0,3-0.1c1.8,0.4,3.7,0.8,5.5,1.2C211,196.7,212.6,198.4,214,195.1z"/>
	<path class="st1" d="M170.3,84.1c0.5,1,1.5,1.1,2.5,1.2c0.1,4.9,5.5,1.1,6.6,4.2c-24.2,7.6-34.1,23.9-28.5,49.3
		c-4-6-5-12.5-4.2-19.1c0.3-2.5-0.2-4.3-1.8-6.3c-6.7-8.2-7.1-17.6-1.3-24.6c6.3-7.7,16.1-9.4,25.4-4.3
		C169.7,85,170,84.7,170.3,84.1z M158.4,96c2.2-1.4,4.3-2.6,6.3-4c1-0.7,3-0.6,3-2.1c0-1.5-1.7-2.3-3-2.9c-1.2-0.6-2.5-0.9-3.7-1.1
		c-4.7-0.7-5.4,0.1-3.9,4.4C157.7,91.9,157.9,93.7,158.4,96z"/>
	<path class="st1" d="M210.1,131.2c0.2,4.8-1.6,8.6-6.1,10.4c-4.2,1.6-6.8-1.5-9.3-4.2c-2.7-2.8-4.6-6.1-5.9-9.7
		c-1.9-5.1-0.2-10.8,3.9-13.2c4.2-2.5,8.9-1.3,12.7,3.3C208.5,121.8,210.1,126.2,210.1,131.2z M197.9,128.5
		c-0.1-1.7-1.2-2.5-2.9-2.6c-1.4-0.1-2.2,0.5-2.1,2c0.1,1.8,1.3,2.7,2.9,2.9C197,131,197.9,130.1,197.9,128.5z"/>
	<path class="st1" d="M177.1,123.3c0.1,6.5-1.8,11.5-6,15.4c-5.1,4.7-12.9,2.4-14.3-4.4c-1.6-7.6,0.9-14.6,6.4-19.9
		c5.3-5,12.5-2.1,13.7,5.1C177.1,121,177.1,122.5,177.1,123.3z M170.9,126.7c-1.7,0.3-2.7,1.3-2.7,3c0,1.4,1.2,2,2.4,1.9
		c1.6-0.2,2.7-1.1,2.7-3C173.2,127.1,172.2,126.6,170.9,126.7z"/>
	<path class="st2" d="M200.4,227.9c3.7,3.2,7.4-0.1,11.1,0.1c18.6,0.3,37.3,0.7,55.9,3.7c-1.8,0.4-3.7,1.1-5.5,1.2
		c-26.6,1.6-53.2,1.3-79.8,1.3c-0.9,0-1.6-0.2-2.1-1c3.9-2.2,8.4-3.3,11.9-6.2C194.5,229.1,197.5,227.6,200.4,227.9z"/>
	<path class="st2" d="M154.2,228c3.7,2.3,7.7,4,11.8,5.4c-0.2,1-0.8,1.3-1.8,1.2c-14.3-0.5-28.6-1-42.8-1.6c-3-0.1-6-0.8-9-1.7
		C126.2,227.8,140.4,229.9,154.2,228z"/>
	<path class="st0" d="M205.4,168.1c-0.5,0.3-1.1,0.6-1.6,1c-1.9-4.9-6.4-9.3-3.1-15.2c0.7-1.3,1.4-2.8,3.2-2.8c2,0,2.5,1.7,3.2,3.3
		c1.2,2.7,0.5,5.3-0.8,7.6C205.2,163.9,204.9,165.9,205.4,168.1z"/>
	<path class="st0" d="M199.8,171.2c0.1,0.3-0.1,0.5-0.4,0.6c-2-1.8-3.9-3.5-6.2-4.9c-4.8-2.9-5.1-7.1-0.7-12.7
		c-1.5,5.2,0.7,8.2,3.7,10.9C198.1,166.7,200,168.4,199.8,171.2z"/>
	<path class="st1" d="M177.6,138.7c3.5,1.3,6.5,2.6,9.8,1.1c0.6-0.3,1.1-0.5,1.6,0.2c0.5,0.8-0.1,1.2-0.3,1.7
		c-2.1,3.6-5.5,4.2-8.6,1.5C178.9,142.3,178,141.2,177.6,138.7z"/>
	<path class="st1" d="M221.8,132.9c-2.4,2.4-2.1,6.4-5.6,8.7c1.1-5.4,3-10.2,2.7-15.4C223.4,127.3,220.9,130.8,221.8,132.9
		L221.8,132.9z"/>
	<path class="st2" d="M209.4,195.3c-1.8-0.4-3.7-0.8-5.5-1.2c-0.7-3.3-4-2.6-6-4c4-0.4,8-0.7,12-1.1
		C207.1,190.9,209.5,193.2,209.4,195.3z"/>
	<path class="st0" d="M209.4,195.3c0.1-2.1-2.3-4.4,0.5-6.3c0,0-0.1,0-0.1,0c0.3,0,0.6,0,1,0.1c1.1,2,2.1,4,3.2,5.9
		C212.6,198.4,211,196.7,209.4,195.3z"/>
	<path class="st0" d="M221.8,133c1.1-1,2.1-2,3.2-2.9c0,0-0.1,0-0.1,0c-1.6,1.7-0.4,2.4,1,3.1c0,0,0-0.1,0-0.1
		c-1.3,0.8,1.5,3.1-1.2,3.4C222,136.6,222.1,134.6,221.8,133C221.8,132.9,221.8,133,221.8,133z"/>
	<path class="st2" d="M210.8,189.2c-0.3-0.1-0.6-0.1-1-0.1c0-0.8,0.5-0.9,1.1-0.8C210.9,188.5,210.9,188.8,210.8,189.2z"/>
	<path class="st3" d="M225.9,133.1c-1.4-0.7-2.6-1.4-1-3.1C225.9,130.8,227.3,131.5,225.9,133.1z"/>
	<path class="st4" d="M160.4,201.5c6-0.5,12-0.6,18-1.4c0.9-0.1,2,0.2,2.9,0.6c1.5,0.7,3.2,1.6,3.1,3.5c-0.1,2.3-2.3,2.2-3.8,2.3
		C173.4,206.9,166.9,204.5,160.4,201.5z"/>
	<path class="st4" d="M183.9,174.6c0-3.2-0.1-5.9-2.1-8.2C186.4,167.1,187.1,169.8,183.9,174.6z"/>
	<path class="st4" d="M158.4,96c-0.5-2.3-0.6-4.1-1.2-5.8c-1.5-4.3-0.9-5.1,3.9-4.4c1.3,0.2,2.6,0.6,3.7,1.1c1.3,0.6,3,1.4,3,2.9
		c0,1.5-2,1.4-3,2.1C162.7,93.3,160.6,94.6,158.4,96z"/>
	<path class="st4" d="M197.9,128.5c0,1.6-0.9,2.5-2.1,2.3c-1.5-0.2-2.8-1.1-2.9-2.9c-0.1-1.5,0.7-2.1,2.1-2
		C196.6,126,197.8,126.8,197.9,128.5z"/>
	<path class="st4" d="M170.9,126.7c1.4-0.1,2.3,0.4,2.4,1.9c0.1,1.8-1,2.8-2.7,3c-1.2,0.1-2.4-0.4-2.4-1.9
		C168.1,128,169.2,127,170.9,126.7z"/>
</g>
<rect x="43.1" y="250.1" class="st5" width="279.5" height="58"/>
<text transform="matrix(1 0 0 1 90.694 287.2583)" class="st1 st6 st7">Serenity</text>
<rect x="93.3" y="294.2" class="st5" width="158.9" height="21.6"/>
<text transform="matrix(1 0 0 1 93.322 299.394)" class="st1 st8 st9 st10">Discover the chef in you</text>
</svg>
