<svg id="Layer_1" data-name="Layer 1" xmlns="http://www.w3.org/2000/svg" viewBox="0 0 238.82 207.48"><defs><style>.cls-1{fill:#6cb244;}.cls-2,.cls-6,.cls-7{fill:#353535;}.cls-3{fill:#afafaf;}.cls-4{fill:#fdfdfd;}.cls-5{fill:#edeceb;}.cls-6{font-size:41.86px;font-family:Somatic-Rounded, Somatic;}.cls-7{font-size:5.98px;font-family:Montserrat-Bold, Montserrat;font-weight:700;letter-spacing:0.32em;}.cls-8{letter-spacing:0.31em;}.cls-9{letter-spacing:0.31em;}.cls-10{letter-spacing:0.31em;}.cls-11{letter-spacing:0.32em;}</style></defs><title>194*194</title><path class="cls-1" d="M127,48.76c-1.86-5.38-6.18-9-9.68-13.13-2.7-3.22-5.48-6.86-8.51-9.21-8.09-6.26-14.92-15.13-26.38-15.92-.84-.06-1.68-.12-2.12-1-.84-1.26.13-1.81,1-2.31C90.42,1.77,100-1.77,110.81.92c2.57.64,4.76-1,7.34-.21C125.4,3,131.59,7.63,133.21,14.55c2.12,9,5.25,18.41,2.26,28a32.62,32.62,0,0,1-5.53,11.28c-1.32-.44-.53-2.51-2.19-2.59l0,.08c1.2-1.37,0-2-.87-2.65Z" transform="translate(22.41)"/><path class="cls-2" d="M88.49,136.86c-4,.16-7.89,1.11-11.86.17a48.15,48.15,0,0,1-10.1-4.57C57,124.07,55.13,112.71,54.4,100.93c-.08-1.26-.19-2.68,1.13-3.43,1.51-.85,2.68.11,3.81,1,5.18,4.1,10.68,7.59,17.51,7.85,4.09.15,8.21-.49,12.29-.28,10.54.55,16.4,7.46,14.71,16.95-.63,3.54-2.8,6.1-5.19,8.54C95.66,134.06,91.84,135,88.49,136.86ZM71.81,109.79c5.56,2.53,11.13,4.62,17.21,4.2,1.27-.09,3.18,0,3.26-1.95.06-1.58-1.34-2.41-2.66-3a4.87,4.87,0,0,0-2.44-.48C82.08,109.31,76.94,109.4,71.81,109.79Z" transform="translate(22.41)"/><path class="cls-2" d="M78,96.66c-8.36.08-15.43-1.87-21-7.77-6.54-7-5.91-21.18,1.07-27.56,1.83-1.67,3.38-1.67,4.5.36,4.33,7.85,11.26,10.74,19.8,10.85A17.1,17.1,0,0,1,89,74.18,10.54,10.54,0,0,1,92,92,18.42,18.42,0,0,1,78,96.66Zm13.9-9.83c2.76-4.13,2.1-6.45-1.78-7C91.84,81.79,91.93,84.11,91.91,86.83Z" transform="translate(22.41)"/><path class="cls-2" d="M105.49,83.92,108.94,82l1.38-.83c5.53-4.13,9.09-9.33,8.44-16.54-.3-3.36,2.1-2.13,3.33-2,10.77,1.1,16.1,12.93,10.33,23-3.89,6.77-10.53,10-17.4,12.8-.55-.07-1,0-1,.71l.07,0-10.27.95c-3.07-1.08-5.1-3.09-5.08-6.47,0-4.45,2.72-7.19,6.39-9.18A.37.37,0,0,0,105.49,83.92Z" transform="translate(22.41)"/><path class="cls-2" d="M117.62,104.32c5.59-.06,10.75,2.83,12.5,7,1.91,4.55.26,10.43-4,14.57-3.08,3-7,4.54-10.69,6.54-3.16-.14-6.33,2.66-9.47-.06,1.62-4.34,3.78-8.5,4.2-13.25s-.8-8.91-4.7-12c-.83-.67-2.52-1-2.23-2.23.33-1.47,2-1.18,3.21-1.32a25.26,25.26,0,0,1,2.55-.05l4.72,1C115.06,105.73,116.42,107.18,117.62,104.32Z" transform="translate(22.41)"/><path class="cls-2" d="M80.3,9.5c.44.89,1.28.95,2.12,1,.06,4.21,4.73.93,5.6,3.6-20.68,6.53-29.1,20.44-24.37,42.16A23.63,23.63,0,0,1,60,39.92a6.42,6.42,0,0,0-1.58-5.36c-5.71-7-6.06-15.07-1.15-21,5.42-6.55,13.75-8,21.73-3.7C79.8,10.26,80,10,80.3,9.5ZM70.09,19.64c1.92-1.2,3.71-2.26,5.42-3.42.89-.6,2.58-.54,2.57-1.83s-1.45-2-2.55-2.48a11.4,11.4,0,0,0-3.19-1c-4-.62-4.6.1-3.3,3.77A39.54,39.54,0,0,1,70.09,19.64Z" transform="translate(22.41)"/><path class="cls-2" d="M114.26,49.76c.13,4.06-1.38,7.39-5.23,8.91-3.56,1.41-5.79-1.31-7.95-3.57A24.21,24.21,0,0,1,96,46.81c-1.63-4.34-.13-9.26,3.34-11.28,3.62-2.11,7.64-1.08,10.87,2.85A17.13,17.13,0,0,1,114.26,49.76Zm-10.4-2.33a2.36,2.36,0,0,0-2.49-2.25c-1.19-.1-1.87.43-1.8,1.74A2.52,2.52,0,0,0,102,49.39C103.13,49.53,103.84,48.77,103.86,47.43Z" transform="translate(22.41)"/><path class="cls-2" d="M86.1,43c.05,5.54-1.54,9.84-5.15,13.17-4.38,4-11,2.09-12.18-3.76a17.8,17.8,0,0,1,5.48-17c4.49-4.28,10.7-1.76,11.68,4.39A24.22,24.22,0,0,1,86.1,43ZM80.79,45.9a2.43,2.43,0,0,0-2.33,2.54c0,1.22,1,1.71,2.06,1.59a2.3,2.3,0,0,0,2.29-2.53C82.76,46.2,81.95,45.81,80.79,45.9Z" transform="translate(22.41)"/><path class="cls-3" d="M106,132.34c3.14,2.73,6.32-.08,9.47.06,15.92.29,31.84.6,47.74,3.17a29.22,29.22,0,0,1-4.72,1.05c-22.71,1.33-45.44,1.15-68.17,1.1a1.83,1.83,0,0,1-1.8-.86c3.35-1.85,7.17-2.8,10.18-5.3C100.94,133.36,103.53,132.11,106,132.34Z" transform="translate(22.41)"/><path class="cls-3" d="M66.53,132.46A48.15,48.15,0,0,0,76.63,137c-.18.84-.69,1.08-1.53,1.05-12.19-.46-24.39-.85-36.58-1.37a28.83,28.83,0,0,1-7.7-1.49C42.62,132.3,54.71,134.1,66.53,132.46Z" transform="translate(22.41)"/><path class="cls-1" d="M110.32,81.22l-1.38.83c-1.6-4.19-5.43-7.93-2.64-13,.62-1.12,1.16-2.4,2.69-2.36,1.73,0,2.17,1.46,2.77,2.78,1,2.33.45,4.51-.67,6.5A6.67,6.67,0,0,0,110.32,81.22Z" transform="translate(22.41)"/><path class="cls-1" d="M105.49,83.92a.37.37,0,0,1-.32.49,36.28,36.28,0,0,0-5.27-4.19c-4.08-2.49-4.39-6-.58-10.84-1.26,4.4.56,7,3.14,9.27C104,80.05,105.64,81.5,105.49,83.92Z" transform="translate(22.41)"/><path class="cls-2" d="M86.55,56.16c3,1.09,5.58,2.26,8.34.93.51-.25.94-.44,1.38.18s0,1.05-.29,1.47c-1.77,3.08-4.67,3.56-7.35,1.26A5.5,5.5,0,0,1,86.55,56.16Z" transform="translate(22.41)"/><path class="cls-2" d="M124.31,51.23c-2.09,2-1.83,5.48-4.77,7.45,1-4.58,2.6-8.7,2.34-13.16,3.81.86,1.65,3.87,2.4,5.76Z" transform="translate(22.41)"/><path class="cls-3" d="M113.71,104.46l-4.72-1c-.57-2.86-3.44-2.24-5.14-3.4l10.27-.95C111.71,100.72,113.76,102.67,113.71,104.46Z" transform="translate(22.41)"/><path class="cls-1" d="M113.71,104.46c0-1.79-2-3.74.41-5.35l-.07,0a3.41,3.41,0,0,1,.82.09l2.74,5.07C116.42,107.18,115.06,105.73,113.71,104.46Z" transform="translate(22.41)"/><path class="cls-1" d="M124.28,51.28l2.7-2.51-.06,0c-1.37,1.43-.35,2.07.87,2.65l0-.08c-1.11.68,1.28,2.66-1.06,2.88s-2.16-1.5-2.38-2.94Z" transform="translate(22.41)"/><path class="cls-3" d="M114.87,99.24a3.41,3.41,0,0,0-.82-.09c0-.67.42-.78,1-.71A2.79,2.79,0,0,1,114.87,99.24Z" transform="translate(22.41)"/><path class="cls-4" d="M127.79,51.37c-1.22-.58-2.24-1.22-.87-2.65C127.79,49.41,129,50,127.79,51.37Z" transform="translate(22.41)"/><path class="cls-5" d="M71.81,109.79c5.13-.39,10.27-.48,15.37-1.2a4.87,4.87,0,0,1,2.44.48c1.32.57,2.72,1.4,2.66,3-.08,1.94-2,1.86-3.26,1.95C82.94,114.41,77.37,112.32,71.81,109.79Z" transform="translate(22.41)"/><path class="cls-5" d="M91.91,86.83c0-2.72-.07-5-1.78-7C94,80.38,94.67,82.7,91.91,86.83Z" transform="translate(22.41)"/><path class="cls-5" d="M70.09,19.64a39.54,39.54,0,0,0-1-4.91c-1.3-3.67-.75-4.39,3.3-3.77a11.4,11.4,0,0,1,3.19,1c1.1.53,2.54,1.18,2.55,2.48s-1.68,1.22-2.57,1.83C73.8,17.38,72,18.43,70.09,19.64Z" transform="translate(22.41)"/><path class="cls-5" d="M103.86,47.43c0,1.34-.73,2.1-1.84,2a2.52,2.52,0,0,1-2.45-2.48c-.07-1.3.61-1.84,1.8-1.74A2.36,2.36,0,0,1,103.86,47.43Z" transform="translate(22.41)"/><path class="cls-5" d="M80.79,45.9c1.15-.08,2,.3,2,1.59A2.3,2.3,0,0,1,80.52,50c-1.05.12-2.05-.37-2.06-1.59A2.43,2.43,0,0,1,80.79,45.9Z" transform="translate(22.41)"/><text class="cls-6" transform="translate(40.65 183.06)">Serenity</text><text class="cls-7" transform="translate(42.89 193.42)">DIS<tspan class="cls-8" x="16.09" y="0">C</tspan><tspan class="cls-9" x="22.07" y="0">O</tspan><tspan x="28.73" y="0">VER THE CHEF IN </tspan><tspan class="cls-10" x="112.92" y="0">Y</tspan><tspan class="cls-11" x="118.84" y="0">OU</tspan></text></svg>